<svg width="500" height="150" xmlns="http://www.w3.org/2000/svg">
  <!-- Add a background color -->
  <rect width="100%" height="100%" fill="#f0f0f0" />

  <!-- Define the path for the ribbon-style "Aditya" -->
  <path d="M 50 100 
           C 150 30, 250 120, 350 100
           C 360 95, 360 105, 350 100
           Q 250 80, 150 100
           C 140 105, 140 95, 150 100
           L 150 120
           L 100 120
           L 100 80
           L 150 80
           Q 160 85, 160 75
           C 160 40, 290 40, 290 75
           Q 290 85, 300 80
           C 320 70, 350 40, 350 100
           L 400 100
           Q 410 95, 410 105
           C 400 110, 400 90, 410 95
           Q 520 125, 450 125
           C 410 125, 410 75, 450 75
           C 520 75, 410 75, 450 125
           Q 510 90, 400 100
           C 390 105, 390 95, 400 100
           L 400 120
           L 350 120
           L 350 80
           L 400 80
           C 410 85, 410 75, 400 80
           Q 300 100, 200 80
           C 190 75, 190 85, 200 80
           Q 100 100, 50 80
           C 40 75, 40 85, 50 80
           Z"
        fill="#000000" />
</svg>
